<svg xmlns="http://www.w3.org/2000/svg" viewBox="0 0 130 760" role="img" aria-labelledby="title desc">
  <title id="title">双击向后翻页</title>
  <desc id="desc">碑帖浏览右侧竖排翻页提示，后字加粗，底部为淡色山水纹样。</desc>
  <g font-family="SimSun, Songti SC, serif" text-anchor="middle">
    <text x="65" y="190" font-size="25" fill="#b9ab9d">双</text>
    <text x="65" y="240" font-size="25" fill="#b9ab9d">击</text>
    <text x="65" y="290" font-size="25" fill="#b9ab9d">向</text>
    <text x="65" y="354" font-size="40" font-weight="700" fill="#6c402a">后</text>
    <text x="65" y="414" font-size="25" fill="#b9ab9d">翻</text>
    <text x="65" y="464" font-size="25" fill="#b9ab9d">页</text>
  </g>
  <g fill="none" stroke-linecap="round" stroke-linejoin="round" transform="translate(130 0) scale(-1 1)">
    <path d="M15 705 C29 668 46 659 59 683 C70 649 88 638 116 704" stroke="#d9c8aa" stroke-width="2.2" opacity=".34"/>
    <path d="M18 719 C37 695 52 698 64 714 C82 684 99 686 114 718" stroke="#cfb991" stroke-width="1.8" opacity=".26"/>
    <path d="M19 733 C41 718 52 724 66 733 C82 716 99 718 113 733" stroke="#c8af82" stroke-width="1.6" opacity=".21"/>
    <path d="M33 676 C46 667 57 668 71 676 C82 682 93 680 103 674" stroke="#d5c2a0" stroke-width="1.5" opacity=".25"/>
    <path d="M31 693 C47 685 61 686 76 694 C90 702 101 700 111 693" stroke="#d5c2a0" stroke-width="1.4" opacity=".20"/>
  </g>
</svg>
